<svg width="827" height="1649" viewBox="0 0 827 1649" fill="none" xmlns="http://www.w3.org/2000/svg">
<path d="M827 1316.49L743.013 1006.27L501.325 1219.03L615.047 1214.53C579.786 1283.92 504.205 1383.95 341.991 1488.23C341.991 1488.23 341.991 1488.23 341.835 1488.23C216.516 1548.55 69.4792 1584.76 -92.1128 1560.65C-693.413 1493.74 -966.858 749.005 -572.608 299.607C-317.844 -4.33304 148.173 -63.1827 473.693 162.369L478.285 155.934C464.119 146.164 443.569 131.355 429.014 122.748C199.78 -23.717 -101.609 -39.2242 -346.955 76.847C-419.734 110.963 -488.387 156.786 -548.089 210.519C-794.524 429.325 -884.038 796.535 -767.203 1103.81C-585.14 1591.2 -25.2498 1770.07 403.483 1565.92C403.483 1565.92 403.638 1565.92 403.95 1565.77C404.339 1565.61 404.728 1565.38 405.117 1565.22C405.662 1565.07 406.207 1564.76 406.908 1564.37C412.278 1561.74 417.727 1559.1 423.02 1556.31C424.499 1555.61 426.056 1554.76 427.69 1553.9C488.404 1521.65 648.05 1423.88 733.439 1249.27L827 1316.26V1316.49Z" fill="#D5E03A" fill-opacity="0.3"/>
</svg>
